<?xml version="1.0" encoding="UTF-8" standalone="no"?>
<svg
   id="Warstwa_1"
   viewBox="0 -76.384 461.538 461.53849"
   version="1.1"
   sodipodi:docname="jeżyk_garden.svg"
   width="461.53851"
   height="461.539"
   inkscape:version="1.2.1 (9c6d41e, 2022-07-14)"
   xmlns:inkscape="http://www.inkscape.org/namespaces/inkscape"
   xmlns:sodipodi="http://sodipodi.sourceforge.net/DTD/sodipodi-0.dtd"
   xmlns="http://www.w3.org/2000/svg"
   xmlns:svg="http://www.w3.org/2000/svg">
  <sodipodi:namedview
     id="namedview260"
     pagecolor="#ffffff"
     bordercolor="#000000"
     borderopacity="0.25"
     inkscape:showpageshadow="2"
     inkscape:pageopacity="0.0"
     inkscape:pagecheckerboard="0"
     inkscape:deskcolor="#d1d1d1"
     showgrid="false"
     inkscape:zoom="0.76429821"
     inkscape:cx="81.774364"
     inkscape:cy="154.39"
     inkscape:window-width="1512"
     inkscape:window-height="822"
     inkscape:window-x="0"
     inkscape:window-y="38"
     inkscape:window-maximized="1"
     inkscape:current-layer="Warstwa_1" />
  <defs
     id="defs207">
    <style
       id="style205">
            .cls-1 {
                fill: #234D47;
            }
        </style>
  </defs>
  <path
     class="cls-1"
     d="m 150.4785,176.92 c 0,0 -20.19,32.79 -19.74,34.14 0,0 -41.429998,-4.8 -42.089998,-5.63 -0.66,-0.83 28.609998,38.49 28.609998,38.49 l 17.47,-24.22 41.73,8.73 -25.98,-51.52 z"
     id="path209" />
  <path
     class="cls-1"
     d="m 216.8785,119.63 c 3.92,-7.89 2.26,-12.94 0.18,-15.78 -2.81,-3.85 -8.19,-5.78 -13.7,-4.93 -4.97,0.77 -8.73,3.59 -10.07,7.54 l 6.92,2.33 c 0.43,-1.28 2.1,-2.32 4.26,-2.66 2.75,-0.42 5.51,0.41 6.69,2.02 1.69,2.31 0.21,6.14 -0.83,8.22 l 6.54,3.25 z"
     id="path211" />
  <path
     class="cls-1"
     d="m 37.468502,149.81 c 0.63,0.25 1.26,0.49 1.91,0.75 26.09,10.41 58.57,23.36 80.809998,51.89 l 5.77,-4.49 c -23.48,-30.09 -58.379998,-44.03 -83.879998,-54.19 -2.77,-1.11 -5.49,-2.19 -8.09,-3.26 4.37,-3.42 6.18,-10.99 5.95,-17.64 -0.19,-6.07 3.28,-8.69 5.58,-9.74 18.25,-4.11 33.96,-14.41 34.96,-15.07 l -4.04,-6.09 c -0.35,0.23 -35.15,23.01 -58.45,13 l -0.54,-0.19 c -0.93,-0.23 -9.2300003,-2.16 -14.2500003,3.11 -3.62999996,3.83 -4.17999996,10.02 -1.6,18.43 2.68,8.72 13.2000003,14.18 28.2700003,20.43 0,0 0,0 0,0 -3.77,3.7 -9.29,10.72 -11.39,21.53 l 7.17,1.39 c 2.45,-12.62 10.42,-18.86 11.8,-19.86 0,0 0,0 0.01,0 z m -16.65,-36.24 c 0.07,0.04 0.16,0.05 0.23,0.07 1.84,0.63 5.67,2.12 6.83,3.9 1.54,2.35 -2.75,2.83 -6.3,2.3 -3.53,-0.51 -8.88,-2.95 -8.49,-5.67 0.28,-1.95 3.67,-1.56 5.62,-1.18 0.7,0.23 1.4,0.42 2.12,0.58 z"
     id="path213" />
  <path
     class="cls-1"
     d="m 93.088502,154.2 5.85,-4.37 c -8.22,-11 -26.81,-13.97 -37.16,-14.77 l -0.56,7.28 c 5.72,0.44 24.94,2.59 31.86,11.86 z"
     id="path215" />
  <path
     class="cls-1"
     d="m 94.778502,124.52 0.35,-7.3 c -17.76,-0.85 -37.1,6.04 -37.91,6.34 l 2.48,6.87 c 0.19,-0.07 18.73,-6.69 35.09,-5.91 z"
     id="path217" />
  <path
     class="cls-1"
     d="m 120.5885,100.57 c -5.4,5.79 -9.18,16.88 -1.4,22.22 7.78,5.34 19.79,-1.49 19.79,-1.49 0,0 12.35,-7.33 5.88,-18.25 -6.48,-10.91 -18.86,-8.27 -24.27,-2.47 z m 11.95,9.37 c -2.72,-0.67 -5.88,-3.61 -3.98,-6.86 1.88,-3.25 6.39,-0.93 6.39,-0.93 0,0 4.3,2.28 4.26,5.09 -0.04,2.82 -3.95,3.35 -6.67,2.7 z"
     id="path219" />
  <path
     class="cls-1"
     d="m 36.018502,178.47 7.29,0.44 c 0.37,-6.1 1.24,-11.92 2.6,-17.29 l -7.08,-1.79 c -1.47,5.81 -2.41,12.08 -2.8,18.64 z"
     id="path221" />
  <path
     class="cls-1"
     d="m 84.908502,87.02 3.75,6.27 c 0.51,-0.31 12.649998,-7.61 25.649998,-20.58 8.6,-8.58 15.51,-17.62 20.61,-26.86 7.09,7.43 14.41,11.38 22.28,12.04 0.79,0.07 1.58,0.1 2.37,0.1 2.22,0 4.42,-0.29 6.59,-0.77 1.77,3.99 4.71,6.01 7.17,7.01 2.16,0.88 4.61,1.27 7.23,1.27 15.3,0 36.61,-13.09 42.33,-17.29 3.14,-2.3 6.58,-5.24 10.56,-8.64 16.38,-13.99 38.82,-33.16 64.47,-27.73 l 1.51,-7.15 c -29.17,-6.17 -54.18,15.19 -70.73,29.32 -3.87,3.3 -7.21,6.16 -10.13,8.3 -10.22,7.48 -33.16,18.96 -42.5,15.15 -0.91,-0.37 -2.05,-1.04 -2.91,-2.54 10.1,-4.38 19.87,-12.87 30.01,-21.7 14.64,-12.74 29.77,-25.91 45.86,-25.91 V 0 c -18.83,0 -35.01,14.08 -50.66,27.7 -14.17,12.33 -27.59,23.99 -40.57,22.89 -5.6,-0.47 -11,-3.33 -16.41,-8.62 1.33,0.22 2.84,0.37 4.52,0.37 10.22,0 26.65,-5.42 45.74,-31.97 l -5.93,-4.26 c -22.96,31.94 -40.08,29.87 -45.44,28.12 2.15,-5.67 3.63,-11.38 4.37,-17.07 l -7.24,-0.95 c -2.35,17.92 -12.09,33.33 -22.56,45.15 -4.03,-6.27 -10.92,-7.3 -14.38,-6.87 l 0.92,7.25 c 0.23,-0.03 5.79,-0.66 8.17,5.21 l 0.11,-0.04 C 97.138502,79.55 85.128502,86.87 84.898502,87.01 Z"
     id="path223" />
  <path
     class="cls-1"
     d="m 399.3285,64.05 5.81,-4.43 c -7.88,-10.35 -26.73,-29.55 -47.36,-35.86 l -2.14,6.99 c 23.62,7.22 42.87,32.24 43.68,33.3 z"
     id="path225" />
  <path
     class="cls-1"
     d="m 237.6385,51.8 c -16.51,10.69 -33.58,17.33 -46.83,18.22 l 0.49,7.29 c 19.78,-1.32 40.02,-12.71 50.32,-19.38 2.61,-1.69 5.28,-3.51 8.04,-5.38 21.26,-14.46 47.72,-32.46 95.67,-24.81 l 1.15,-7.21 c -50.81,-8.1 -78.6,10.8 -100.93,25.98 -2.71,1.85 -5.34,3.63 -7.9,5.29 z"
     id="path227" />
  <path
     class="cls-1"
     d="m 343.2085,46.39 c -20.13,-6.65 -45.33,-3.57 -74.89,9.15 -21.74,9.36 -37.47,20.45 -38.13,20.92 l 4.23,5.96 c 0.62,-0.44 62.36,-43.66 106.5,-29.08 17.71,5.85 29.08,13.64 39.1,20.52 13.9,9.53 25.9,17.76 48.89,18.27 l 0.16,-7.3 c -20.81,-0.45 -31.45,-7.75 -44.91,-16.99 -10.42,-7.15 -22.24,-15.25 -40.94,-21.43 z"
     id="path229" />
  <path
     class="cls-1"
     d="m 359.6085,84.8 -0.88,-0.58 c -52.03,-34.48 -101.89,-5.82 -102.38,-5.52 l 3.71,6.3 c 1.88,-1.1 46.51,-26.58 94.64,5.32 l 0.88,0.58 c 20.31,13.46 42.78,28.36 70.69,28.36 6.99,0 14.32,-0.93 22.03,-3.06 l -1.94,-7.04 c -35.33,9.73 -62.65,-8.38 -86.75,-24.35 z"
     id="path231" />
  <path
     class="cls-1"
     d="m 374.0685,120.69 c -13.05,-8.03 -27.84,-17.12 -46.33,-25.34 -30.75,-13.67 -75.12,-1.94 -86.94,3.64 l 3.12,6.61 c 11.05,-5.21 52.41,-16.22 80.86,-3.57 18.04,8.02 32.61,16.98 45.47,24.89 20.8,12.79 38.37,23.6 60.4,23.6 7.75,0 16.05,-1.34 25.23,-4.39 l -2.31,-6.93 c -32.07,10.67 -51.96,-1.56 -79.5,-18.49 z"
     id="path233" />
  <path
     class="cls-1"
     d="m 347.0585,144.09 c 25.23,14.27 60.14,30.4 108.53,30.4 1.96,0 3.94,-0.03 5.95,-0.08 l -0.2,-7.3 c -49.66,1.34 -85.26,-14.99 -110.69,-29.38 l -3.6,6.36 z"
     id="path235" />
  <path
     class="cls-1"
     d="m 256.6885,110.84 3.02,6.65 c 1.32,-0.59 32.95,-14.12 77.13,20.15 l 4.48,-5.77 c -47.89,-37.14 -83.15,-21.7 -84.63,-21.03 z"
     id="path237" />
  <path
     class="cls-1"
     d="m 230.6685,128.29 c 3.28,-4.55 5.43,-10 5.26,-16.2 -0.32,-12.16 -6.08,-22.23 -15.42,-26.95 -10.78,-5.45 -24.77,-3.12 -38.4,6.38 l 4.18,5.99 c 11.35,-7.91 22.63,-10.05 30.92,-5.85 7,3.54 11.16,11.05 11.41,20.62 0.34,12.87 -13.5,20.3 -15.08,21.11 l 3.32,6.51 c 0.43,-0.22 0.87,-0.46 1.3,-0.7 1.4,-0.61 12.61,-5.21 31.72,-4.75 18.89,0.45 49.59,6.06 88.57,30.21 48.32,29.94 90.41,36.31 117.87,38.5 l 0.58,-7.28 c -26.7,-2.13 -67.63,-8.32 -114.6,-37.43 -52.75,-32.68 -91.44,-33.42 -111.63,-30.15 z"
     id="path239" />
  <path
     class="cls-1"
     d="m 330.8685,187.12 c -57.85,-54.16 -102.94,-35.42 -104.83,-34.59 l 2.92,6.7 c 0.42,-0.18 42.54,-17.67 96.91,33.23 2.64,2.47 5.16,4.87 7.62,7.19 21.64,20.54 38.74,36.76 81.73,52.97 l 2.58,-6.84 c -41.61,-15.69 -57.41,-30.68 -79.28,-51.43 -2.47,-2.34 -5,-4.75 -7.65,-7.23 z"
     id="path241" />
  <path
     class="cls-1"
     d="m 368.9485,194 -3.79,6.24 c 2.07,1.26 4.08,2.49 6.06,3.7 20.18,12.36 37.61,23.03 68.73,30.32 l 1.67,-7.11 c -29.97,-7.02 -46.13,-16.91 -66.58,-29.44 -1.99,-1.22 -4.01,-2.46 -6.09,-3.72 z"
     id="path243" />
  <path
     class="cls-1"
     d="m 307.8385,204.45 4.75,-5.55 c -43.78,-37.41 -62.47,-26.53 -64.45,-25.17 l 4.05,6.08 c 0.16,-0.1 16.14,-9.13 55.65,24.64 z"
     id="path245" />
  <path
     class="cls-1"
     d="m 288.1385,211.44 -0.57,7.28 c 35.26,2.76 68.38,18.55 90.85,43.32 l 5.41,-4.91 c -23.72,-26.13 -58.59,-42.78 -95.69,-45.69 z"
     id="path247" />
  <path
     class="cls-1"
     d="m 220.9785,276.19 -1.99,7.03 c 14.77,4.19 29.63,5.98 43.78,5.98 27.6,0 52.5,-6.82 68.77,-16 l -3.59,-6.36 c -23.31,13.14 -65.42,21.13 -106.98,9.35 z"
     id="path249" />
  <path
     class="cls-1"
     d="m 209.2985,278.55 29.18,-73.79 c 3.73,-9.43 -0.91,-20.14 -10.34,-23.87 -4.57,-1.81 -9.57,-1.73 -14.08,0.23 -4.51,1.95 -7.99,5.54 -9.79,10.11 l -4.4,11.11 7.28,2.88 4.4,-11.11 c 1.04,-2.62 3.03,-4.69 5.63,-5.81 2.59,-1.12 5.46,-1.17 8.09,-0.13 5.42,2.14 8.09,8.29 5.94,13.71 l -27.05,68.41 c -21.74,-9.1 -41.3,-23.38 -58.2,-42.53 l -5.48,4.84 c 17.68,20.02 38.18,34.96 60.99,44.48 l -11.39,28.81 7.28,2.88 11.41,-28.84 c 0,0 0.03,0.01 0.04,0.02 l 0.5,-1.4 z"
     id="path251" />
  <path
     class="cls-1"
     d="m 306.7285,235.15 v 7.31 c 29.7,0.01 42.33,21.62 42.85,22.54 l 6.37,-3.58 c -0.6,-1.07 -15.12,-26.25 -49.22,-26.26 z"
     id="path253" />
  <rect
     class="cls-1"
     x="69.636551"
     y="224.31024"
     width="7.3000002"
     height="56.82"
     transform="rotate(-25.16)"
     id="rect255" />
  <path
     class="cls-1"
     d="m 153.3585,86.43 c -7.18,-13.09 -16.96,-14.38 -23.26,-13.52 -3.7,0.51 -6.2,1.75 -6.26,1.79 l 3.33,6.5 c 1.21,-0.6 12.01,-5.45 19.8,8.74 l 6.4,-3.52 z"
     id="path257" />
</svg>
